<mxfile host="app.diagrams.net" modified="2021-07-23T00:23:58.650Z" agent="5.0 (X11; Linux x86_64) AppleWebKit/537.36 (KHTML, like Gecko) Chrome/90.0.4430.212 Safari/537.36" etag="5zygZVy21DcwWflloPsu" version="14.8.4" type="github">
  <diagram id="AUPCx3ZcEh8xyHO7lobR" name="Page-1">
    <mxGraphModel dx="981" dy="557" grid="1" gridSize="10" guides="1" tooltips="1" connect="1" arrows="1" fold="1" page="1" pageScale="1" pageWidth="827" pageHeight="1169" math="0" shadow="0">
      <root>
        <mxCell id="0" />
        <mxCell id="1" parent="0" />
        <mxCell id="Wiez92DhjjI8bRSd8p2w-50" style="edgeStyle=orthogonalEdgeStyle;rounded=0;orthogonalLoop=1;jettySize=auto;html=1;fontSize=14;" edge="1" parent="1" source="Wiez92DhjjI8bRSd8p2w-20" target="Wiez92DhjjI8bRSd8p2w-38">
          <mxGeometry relative="1" as="geometry" />
        </mxCell>
        <mxCell id="Wiez92DhjjI8bRSd8p2w-20" value="Disgregación" style="rounded=1;whiteSpace=wrap;html=1;fontStyle=1;fontSize=14;fillColor=#d5e8d4;strokeColor=#82b366;" vertex="1" parent="1">
          <mxGeometry x="326" y="100" width="108" height="30" as="geometry" />
        </mxCell>
        <mxCell id="Wiez92DhjjI8bRSd8p2w-47" style="edgeStyle=orthogonalEdgeStyle;rounded=0;orthogonalLoop=1;jettySize=auto;html=1;fontSize=14;" edge="1" parent="1" source="Wiez92DhjjI8bRSd8p2w-22" target="Wiez92DhjjI8bRSd8p2w-20">
          <mxGeometry relative="1" as="geometry" />
        </mxCell>
        <mxCell id="Wiez92DhjjI8bRSd8p2w-22" value="EMAs&lt;br&gt;&lt;span style=&quot;font-size: 12px&quot;&gt;(2014-2020)&lt;/span&gt;" style="rounded=0;whiteSpace=wrap;html=1;fontStyle=1;fontSize=14;fillColor=#f8cecc;strokeColor=#b85450;" vertex="1" parent="1">
          <mxGeometry x="320" y="20" width="120" height="50" as="geometry" />
        </mxCell>
        <mxCell id="Wiez92DhjjI8bRSd8p2w-49" style="edgeStyle=orthogonalEdgeStyle;rounded=0;orthogonalLoop=1;jettySize=auto;html=1;entryX=0.5;entryY=0;entryDx=0;entryDy=0;fontSize=14;" edge="1" parent="1" source="Wiez92DhjjI8bRSd8p2w-36" target="Wiez92DhjjI8bRSd8p2w-40">
          <mxGeometry relative="1" as="geometry" />
        </mxCell>
        <mxCell id="Wiez92DhjjI8bRSd8p2w-36" value="&lt;span style=&quot;font-size: 11px&quot;&gt;Precipitación horaria&lt;/span&gt;&lt;br&gt;ERA5-Land&lt;br&gt;&lt;span style=&quot;font-size: 12px&quot;&gt;(2014-2020)&lt;/span&gt;" style="rounded=0;whiteSpace=wrap;html=1;fontStyle=1;fontSize=14;fillColor=#dae8fc;strokeColor=#6c8ebf;" vertex="1" parent="1">
          <mxGeometry x="470" y="90" width="120" height="70" as="geometry" />
        </mxCell>
        <mxCell id="Wiez92DhjjI8bRSd8p2w-48" style="edgeStyle=orthogonalEdgeStyle;rounded=0;orthogonalLoop=1;jettySize=auto;html=1;entryX=0.5;entryY=0;entryDx=0;entryDy=0;fontSize=14;" edge="1" parent="1" source="Wiez92DhjjI8bRSd8p2w-37" target="Wiez92DhjjI8bRSd8p2w-39">
          <mxGeometry relative="1" as="geometry" />
        </mxCell>
        <mxCell id="Wiez92DhjjI8bRSd8p2w-37" value="&lt;font style=&quot;font-size: 11px&quot;&gt;Precipitación horaria&lt;/font&gt;&lt;br&gt;GPM-IMERG-Early&lt;br&gt;&lt;span style=&quot;font-size: 12px&quot;&gt;(2014-2020)&lt;/span&gt;" style="rounded=0;whiteSpace=wrap;html=1;fontStyle=1;fontSize=14;fillColor=#dae8fc;strokeColor=#6c8ebf;" vertex="1" parent="1">
          <mxGeometry x="172" y="90" width="120" height="70" as="geometry" />
        </mxCell>
        <mxCell id="Wiez92DhjjI8bRSd8p2w-51" style="edgeStyle=orthogonalEdgeStyle;rounded=0;orthogonalLoop=1;jettySize=auto;html=1;fontSize=14;" edge="1" parent="1" source="Wiez92DhjjI8bRSd8p2w-38" target="Wiez92DhjjI8bRSd8p2w-41">
          <mxGeometry relative="1" as="geometry" />
        </mxCell>
        <mxCell id="Wiez92DhjjI8bRSd8p2w-38" value="Completación" style="rounded=1;whiteSpace=wrap;html=1;fontStyle=1;fontSize=14;fillColor=#d5e8d4;strokeColor=#82b366;" vertex="1" parent="1">
          <mxGeometry x="326" y="160" width="108" height="30" as="geometry" />
        </mxCell>
        <mxCell id="Wiez92DhjjI8bRSd8p2w-53" style="edgeStyle=orthogonalEdgeStyle;rounded=0;orthogonalLoop=1;jettySize=auto;html=1;fontSize=14;" edge="1" parent="1" source="Wiez92DhjjI8bRSd8p2w-39" target="Wiez92DhjjI8bRSd8p2w-41">
          <mxGeometry relative="1" as="geometry">
            <Array as="points">
              <mxPoint x="232" y="235" />
            </Array>
          </mxGeometry>
        </mxCell>
        <mxCell id="Wiez92DhjjI8bRSd8p2w-39" value="Disgregación" style="rounded=1;whiteSpace=wrap;html=1;fontStyle=1;fontSize=14;fillColor=#d5e8d4;strokeColor=#82b366;" vertex="1" parent="1">
          <mxGeometry x="178" y="190" width="108" height="30" as="geometry" />
        </mxCell>
        <mxCell id="Wiez92DhjjI8bRSd8p2w-54" style="edgeStyle=orthogonalEdgeStyle;rounded=0;orthogonalLoop=1;jettySize=auto;html=1;entryX=1;entryY=0.5;entryDx=0;entryDy=0;fontSize=14;" edge="1" parent="1" source="Wiez92DhjjI8bRSd8p2w-40" target="Wiez92DhjjI8bRSd8p2w-41">
          <mxGeometry relative="1" as="geometry">
            <Array as="points">
              <mxPoint x="530" y="235" />
            </Array>
          </mxGeometry>
        </mxCell>
        <mxCell id="Wiez92DhjjI8bRSd8p2w-40" value="Disgregación" style="rounded=1;whiteSpace=wrap;html=1;fontStyle=1;fontSize=14;fillColor=#d5e8d4;strokeColor=#82b366;" vertex="1" parent="1">
          <mxGeometry x="476" y="190" width="108" height="30" as="geometry" />
        </mxCell>
        <mxCell id="Wiez92DhjjI8bRSd8p2w-55" style="edgeStyle=orthogonalEdgeStyle;rounded=0;orthogonalLoop=1;jettySize=auto;html=1;entryX=0.5;entryY=0;entryDx=0;entryDy=0;fontSize=14;" edge="1" parent="1" source="Wiez92DhjjI8bRSd8p2w-41" target="Wiez92DhjjI8bRSd8p2w-43">
          <mxGeometry relative="1" as="geometry" />
        </mxCell>
        <mxCell id="Wiez92DhjjI8bRSd8p2w-41" value="Mezcla" style="rounded=1;whiteSpace=wrap;html=1;fontStyle=1;fontSize=14;fillColor=#d5e8d4;strokeColor=#82b366;" vertex="1" parent="1">
          <mxGeometry x="326" y="220" width="108" height="30" as="geometry" />
        </mxCell>
        <mxCell id="Wiez92DhjjI8bRSd8p2w-57" style="edgeStyle=orthogonalEdgeStyle;rounded=0;orthogonalLoop=1;jettySize=auto;html=1;entryX=0.5;entryY=0;entryDx=0;entryDy=0;fontSize=14;" edge="1" parent="1" source="Wiez92DhjjI8bRSd8p2w-43" target="Wiez92DhjjI8bRSd8p2w-45">
          <mxGeometry relative="1" as="geometry" />
        </mxCell>
        <mxCell id="Wiez92DhjjI8bRSd8p2w-43" value="Ratio de precipitación horaria" style="rounded=0;whiteSpace=wrap;html=1;fontStyle=1;fontSize=14;fillColor=#dae8fc;strokeColor=#6c8ebf;" vertex="1" parent="1">
          <mxGeometry x="320" y="270" width="120" height="50" as="geometry" />
        </mxCell>
        <mxCell id="Wiez92DhjjI8bRSd8p2w-62" style="edgeStyle=orthogonalEdgeStyle;rounded=0;orthogonalLoop=1;jettySize=auto;html=1;entryX=0;entryY=0.5;entryDx=0;entryDy=0;fontSize=15;" edge="1" parent="1" source="Wiez92DhjjI8bRSd8p2w-44" target="Wiez92DhjjI8bRSd8p2w-45">
          <mxGeometry relative="1" as="geometry">
            <Array as="points">
              <mxPoint x="240" y="390" />
            </Array>
          </mxGeometry>
        </mxCell>
        <mxCell id="Wiez92DhjjI8bRSd8p2w-44" value="&lt;font style=&quot;font-size: 11px&quot;&gt;Precipitación diaria&lt;/font&gt;&lt;br&gt;PISCOp&lt;br&gt;&lt;font style=&quot;font-size: 12px&quot;&gt;(2014-2020)&lt;/font&gt;" style="rounded=0;whiteSpace=wrap;html=1;fontStyle=1;fontSize=14;fillColor=#dae8fc;strokeColor=#6c8ebf;" vertex="1" parent="1">
          <mxGeometry x="172" y="270" width="120" height="50" as="geometry" />
        </mxCell>
        <mxCell id="Wiez92DhjjI8bRSd8p2w-45" value="Precipitación horaria:&amp;nbsp;&lt;br style=&quot;font-size: 15px&quot;&gt;PISCOp_h&lt;br style=&quot;font-size: 15px&quot;&gt;&lt;font style=&quot;font-size: 12px&quot;&gt;(2014-2020)&lt;/font&gt;" style="rounded=0;whiteSpace=wrap;html=1;fontStyle=1;fontSize=15;fillColor=#dae8fc;strokeColor=#6c8ebf;" vertex="1" parent="1">
          <mxGeometry x="320" y="345" width="120" height="90" as="geometry" />
        </mxCell>
        <mxCell id="Wiez92DhjjI8bRSd8p2w-63" value="Dato puntual" style="rounded=0;whiteSpace=wrap;html=1;fontSize=11;fillColor=#f8cecc;strokeColor=#b85450;fontStyle=2" vertex="1" parent="1">
          <mxGeometry x="490" y="330" width="70" height="20" as="geometry" />
        </mxCell>
        <mxCell id="Wiez92DhjjI8bRSd8p2w-64" value="Dato grillado" style="rounded=0;whiteSpace=wrap;html=1;fontSize=11;fillColor=#dae8fc;strokeColor=#6c8ebf;fontStyle=2" vertex="1" parent="1">
          <mxGeometry x="490" y="350" width="70" height="20" as="geometry" />
        </mxCell>
        <mxCell id="Wiez92DhjjI8bRSd8p2w-65" value="Proceso" style="rounded=1;whiteSpace=wrap;html=1;fontSize=11;fillColor=#d5e8d4;strokeColor=#82b366;fontStyle=2" vertex="1" parent="1">
          <mxGeometry x="490" y="370" width="70" height="20" as="geometry" />
        </mxCell>
      </root>
    </mxGraphModel>
  </diagram>
</mxfile>
